<?xml version="1.0" encoding="utf-8"?>
<!-- Generator: Adobe Illustrator 23.0.2, SVG Export Plug-In . SVG Version: 6.00 Build 0)  -->
<svg version="1.1" id="Layer_1" xmlns="http://www.w3.org/2000/svg" xmlns:xlink="http://www.w3.org/1999/xlink" x="0px" y="0px"
	 viewBox="0 0 60 60" style="enable-background:new 0 0 60 60;" xml:space="preserve">
<style type="text/css">
	.st0{fill:none;stroke:#422CFD;stroke-width:1.5;stroke-linejoin:round;}
</style>
<path class="st0" d="M47.28,12.57l-3.3,6.27c-0.14,0.26-0.47,0.37-0.73,0.23L39,16.5c-0.36-0.19-1,0.09-1,0.5v17.5
	c0,0.3-0.2,0.5-0.5,0.5h-22c-0.3,0-0.5-0.2-0.5-0.5V17c0-0.41-0.64-0.69-1-0.5l-4.4,2.56c-0.26,0.14-0.59,0.04-0.73-0.23l-2.81-6.27
	c-0.14-0.27-0.04-0.59,0.23-0.73l9.2-4.83l4.87,0c0.27,0,0.51,0.2,0.54,0.47c0.24,2.98,2.74,5.32,5.78,5.32
	c3.04,0,5.53-2.34,5.77-5.32C32.47,7.2,32.71,7,32.99,7h4.74c0.09,0,0.17,0.02,0.25,0.06l9.08,4.77
	C47.32,11.97,47.42,12.3,47.28,12.57z"/>
<path class="st0" d="M38.46,25H54c0,0.5,0,0.2,0,0.5v3c0,0.3,0,0,0,0.5h-5.5c-0.32,0-0.58,0.28-0.54,0.61c0.28,2.59,3,5.07,5.6,5.29
	c0.27,0.02,0.48,0.26,0.48,0.53v17.03c0,0.3-0.24,0.54-0.54,0.54h-9.96c-0.3,0-0.54-0.24-0.54-0.54V40c0-0.93-1.07-1-2-1
	c-0.93,0-2,0.07-2,1v12.46c0,0.3-0.24,0.54-0.54,0.54H27.54c-0.3,0-0.54-0.24-0.54-0.54l0.06-16.86c0-0.3,0.24-0.54,0.54-0.54"/>
<path class="st0" d="M49,29H38"/>
<path class="st0" d="M54,29v7"/>
</svg>
