<?xml version="1.0" encoding="utf-8"?>
<!-- Generator: Adobe Illustrator 23.0.2, SVG Export Plug-In . SVG Version: 6.00 Build 0)  -->
<svg version="1.1" id="Layer_1" xmlns="http://www.w3.org/2000/svg" xmlns:xlink="http://www.w3.org/1999/xlink" x="0px" y="0px"
	 viewBox="0 0 60 60" style="enable-background:new 0 0 60 60;" xml:space="preserve">
<style type="text/css">
	.st0{fill:none;stroke:#422CFD;stroke-width:1.5;}
</style>
<path class="st0" d="M19.8,33h2.8c1.1,0,2,0.9,2,2l0,0c0,1.1,0.89,2,2,2H34c1.1,0,2-0.9,2-2l0,0c0-1.1,0.9-2,2-2h2.5
	c2.49,0,4.5-2.01,4.5-4.5v-7C45,15.15,39.85,10,33.5,10h-7C20.15,10,15,15.15,15,21.5v6.7C15,30.85,17.15,33,19.8,33z"/>
<path class="st0" d="M15.9,47.73L44.1,37.47"/>
<path class="st0" d="M15.9,37.47L44.1,47.73"/>
<circle class="st0" cx="25.5" cy="25.5" r="2.5"/>
<circle class="st0" cx="35.5" cy="25.5" r="2.5"/>
</svg>
