<?xml version="1.0" encoding="utf-8"?>
<!-- Generator: Adobe Illustrator 23.0.2, SVG Export Plug-In . SVG Version: 6.00 Build 0)  -->
<svg version="1.1" id="Layer_1" xmlns="http://www.w3.org/2000/svg" xmlns:xlink="http://www.w3.org/1999/xlink" x="0px" y="0px"
	 viewBox="0 0 60 60" style="enable-background:new 0 0 60 60;" xml:space="preserve">
<style type="text/css">
	.st0{fill:none;stroke:#422CFD;stroke-width:1.5;stroke-miterlimit:10;}
</style>
<g>
	<path class="st0" d="M24.03,7.62c5.15,3.09,5.53,11.68,5.54,13.43c0,0.04,0.77-0.08,0,0.04c-0.21,0.03-0.57-0.07-1.02-0.18
		l-0.93-0.22c-0.84-0.2-1.7-0.41-2.54-0.64c-3.41-0.95-6.48-0.15-8.95,2.33c-0.15,0.15-0.29,0.31-0.44,0.46
		c-0.01,0.01-0.01,0.01-0.01,0.02c-0.01,0.02-0.02,0.04-0.03,0.06c-0.01,0.02-0.02,0.04-0.03,0.06c-0.01,0.02-0.01,0.04-0.01,0.06
		c0,0.02,0,0.05,0,0.07c0,0.01,0,0.02,0,0.03c0,0.01,0.01,0.02,0.01,0.03c0.01,0.02,0.02,0.05,0.03,0.07
		c0.01,0.02,0.02,0.04,0.03,0.05c0.01,0.01,0.01,0.02,0.02,0.03c0.05,0.06,5.48,5.8,6.38,10.12c0.9,4.3,0.11,6.03-3.21,13.32
		l-0.08,0.17c-0.01,0.03-0.02,0.05-0.02,0.08c0,0.01-0.01,0.01-0.01,0.02c0,0,0,0,0,0c-0.01,0.04,0,0.08,0.01,0.12
		c0,0.01,0.01,0.02,0.01,0.03c0.01,0.03,0.02,0.05,0.04,0.08c0.01,0.01,0.02,0.02,0.02,0.03c0.01,0.01,0.01,0.02,0.02,0.02
		c0.9,0.92,2.51,1.76,3.93,2.51c0.4,0.21,0.78,0.41,1.11,0.6c0.79,0.45,1.56,0.67,2.34,0.67c0.52,0,1.05-0.1,1.58-0.3
		c0.09-0.03,0.17-0.06,0.26-0.08c0.09-0.03,0.17-0.05,0.27-0.08c0.85-0.32,1.72-0.34,2.59-0.09c0.23,0.07,0.47,0.12,0.7,0.18
		c0.19,0.04,0.37,0.08,0.55,0.14c0.37,0.11,0.75,0.16,1.12,0.16c0.52,0,1.04-0.1,1.58-0.31c2.06-0.83,4.33-2.32,5.65-3.71
		c0,0,0.01-0.01,0.01-0.01c0.01-0.01,0.01-0.02,0.02-0.03c0.02-0.02,0.03-0.05,0.04-0.08c0-0.01,0.01-0.02,0.01-0.04
		c0.01-0.03,0.01-0.06,0.01-0.09c0-0.01,0-0.02,0-0.03c0-0.04-0.01-0.07-0.03-0.11c-3.36-7.4-3.67-8.88-2.78-13.16
		c0.85-4.04,5.72-8.82,6.31-9.4l0.01,0c0.01,0,0.01-0.01,0.02-0.01c0.04-0.02,0.08-0.04,0.11-0.07c0.01-0.01,0.02-0.01,0.02-0.02
		c0.03-0.03,0.06-0.07,0.08-0.12c0,0,0-0.01,0-0.01c0,0,0.01-0.01,0.01-0.01c0-0.02,0-0.03,0-0.04c0.01-0.04,0.01-0.08,0-0.11
		c0-0.02-0.01-0.03-0.01-0.05c-0.01-0.04-0.03-0.07-0.05-0.1c-0.01-0.01-0.01-0.02-0.01-0.03c-0.01-0.01-0.01-0.01-0.02-0.02l0,0
		c-1.14-1.26-2.66-2.26-4.52-2.99c-1.97-0.76-3.52-0.94-5.02-0.6c-0.55,0.12-1.09,0.29-1.61,0.45c-0.39,0.12-0.77,0.24-1.16,0.34
		c-0.41,0.1-0.84,0.18-1.26,0.26c-0.12,0.02-0.24,0.05-0.37,0.07l0,0l-0.75-0.51c0.01-0.07,0.8,0.24,0.98,0.11
		c0.07-0.05,0.13-0.1,0.19-0.15l0.09-0.08c1.66-1.29,3.63-2.22,6.04-2.83c1.51-0.39,2.8-1.1,3.93-2.17c1.15-1.1,2.07-2.43,2.84-4.07
		c0.1-0.22,0.19-0.46,0.29-0.69c0.08-0.19,0.16-0.38,0.24-0.57c0.07-0.17,0-0.37-0.17-0.45l-0.06-0.03
		c-0.05-0.03-0.11-0.06-0.18-0.07c-2.64-0.48-4.89-0.5-7-0.08c-1.97,0.39-5.29,2.98-5.65,4.74c-0.41,1.7-1.07,5.35-1.55,6.98
		 M44.17,24.04c-1.52-0.22-7.36-1.18-9.98,0.95c-2.16-0.85-6.33-1.9-11.1,0.02c-0.65-0.21-1.21-0.51-1.8-0.84
		c-1.32-0.73-2.81-1.54-5.65-1.24 M18.77,47.16c1.79,0.15,6.18,0.62,7.66-0.59c0.11,0.04,0.23,0.08,0.35,0.12
		c1.64,0.57,3.88,1.34,6.42-0.12c1.59,0.73,2.94,1.27,4.35,1.27c1.57,0,2.71-1.02,3.08-1.09"/>
	<path class="st0" d="M27.56,33.9c-0.74,0.57-1.04,0.88-1.35,1.34c-0.14,0.26-0.14,0.26-0.24,0.52c-0.1,0.25-0.13,0.49-0.08,0.73
		c0.12,0.64,0.69,1.11,1.34,1.1c0.06,0,0.12-0.01,0.18-0.02c0.49-0.08,0.85-0.36,1.04-0.82c0.11-0.25,0.13-0.5,0.07-0.75
		c-0.05-0.21-0.14-0.39-0.22-0.54c-0.21-0.39-1.35-1.6-1.57-1.85"/>
	<path class="st0" d="M33.14,33.9c-0.74,0.57-1.04,0.88-1.35,1.34c-0.14,0.26-0.14,0.26-0.24,0.52c-0.1,0.25-0.13,0.49-0.08,0.73
		c0.12,0.64,0.69,1.11,1.34,1.1c0.06,0,0.12-0.01,0.18-0.02c0.49-0.08,0.85-0.36,1.04-0.82c0.11-0.25,0.13-0.5,0.07-0.75
		c-0.05-0.21-0.14-0.39-0.22-0.54c-0.21-0.39-1.35-1.6-1.57-1.85"/>
</g>
</svg>
