<?xml version="1.0" encoding="utf-8"?>
<!-- Generator: Adobe Illustrator 23.0.2, SVG Export Plug-In . SVG Version: 6.00 Build 0)  -->
<svg version="1.1" id="Layer_1" xmlns="http://www.w3.org/2000/svg" xmlns:xlink="http://www.w3.org/1999/xlink" x="0px" y="0px"
	 viewBox="0 0 60 60" style="enable-background:new 0 0 60 60;" xml:space="preserve">
<style type="text/css">
	.st0{fill:none;stroke:#422CFD;stroke-width:1.5;stroke-linecap:round;stroke-linejoin:round;}
</style>
<polygon class="st0" points="36,36 29,36 29,38 20,38 20,22 36,22 "/>
<polygon class="st0" points="31,52 20,52 20,38 20,52 "/>
<polygon class="st0" points="26,7 30,7 30,4 26,4 "/>
<path class="st0" d="M26,7v9.12c0,0.26-0.67,0.52-1,0.52h-1.12c-2.3,0-3.88,1.27-3.88,3.06V22h16v-2.3c0-1.79-1.7-3.06-4-3.06h-0.97
	c-0.33,0-1.03-0.26-1.03-0.52V7H26z"/>
<polyline class="st0" points="35,36 36,36 38,40 36,42 39,46 "/>
<polyline class="st0" points="40,36 43,36 40,56 32,56 29,36 "/>
</svg>
