<?xml version="1.0" encoding="utf-8"?>
<!-- Generator: Adobe Illustrator 23.0.2, SVG Export Plug-In . SVG Version: 6.00 Build 0)  -->
<svg version="1.1" id="Layer_1" xmlns="http://www.w3.org/2000/svg" xmlns:xlink="http://www.w3.org/1999/xlink" x="0px" y="0px"
	 viewBox="0 0 60 60" style="enable-background:new 0 0 60 60;" xml:space="preserve">
<style type="text/css">
	.st0{fill:none;stroke:#422CFD;stroke-width:1.5;stroke-linecap:round;stroke-linejoin:round;}
</style>
<path class="st0" d="M20,45c-1,0-7.19-0.58-7.49-2.52l-0.93-1.95l-0.01-0.01l-0.1-0.22c-0.29-0.33-0.45-0.71-0.47-1.13v-0.05v-0.02
	V13.29c0.01-0.05,0.01-0.08,0.02-0.12c0-0.03,0.02-0.07,0.03-0.09c0-0.03,0.01-0.06,0.02-0.08c0.02-0.04,0.05-0.08,0.07-0.12
	c0.01-0.01,0.01-0.03,0.02-0.04l0.01-0.01l1.36-2c0.6-2.79,8.54-2.83,9.48-2.82c0.94,0,8.89,0.13,9.49,2.93l1.35,2.01h0.01v0.01
	c0.01,0.01,0.01,0.02,0.02,0.03c0.03,0.05,0.05,0.08,0.07,0.13c0.01,0.03,0.02,0.06,0.03,0.08c0.01,0.03,0.02,0.07,0.03,0.09
	c0.01,0.04,0.01,0.08,0.01,0.12c0,0.02,0.01,0.04,0.01,0.06L33.02,36"/>
<path class="st0" d="M31.41,11.28c0,1.23-4.69,2.5-9.38,2.5c-4.69,0-9.67-1.27-9.67-2.5"/>
<path class="st0" d="M19.13,42.58c-4.43-0.48-7.34-1.94-7.56-2.04l-0.01-0.01"/>
<path class="st0" d="M32.71,28.67c-0.86,0.68-1.83,1.31-2.89,1.87c-5.08,2.67-10.38,2.66-11.84-0.02c-1.46-2.69,1.48-7.03,6.56-9.7
	c2.9-1.53,5.88-2.18,8.16-1.96"/>
<path class="st0" d="M18,11h2"/>
<path class="st0" d="M51,38.25v0.02L50.98,48L49,51c-0.39,1.17-11.67,1-13,1c-1.34,0-13.36,0.17-14-1l-2-3v-9.53
	c0.01-0.01,0.01-0.03,0.02-0.05c0.01-0.01,0.03-0.03,0.04-0.04c0.02-0.01,0.03-0.02,0.04-0.04c0.03-0.01,0.2-0.26,0.23-0.28
	c0.01,0,0.02-0.01,0.03-0.02h0.01l1.93-0.82c0.67-0.89,8.07-1.12,11.7-1.17c0.98-0.02,1.85,0,2.14,0c1.32,0,13.03,0.04,13.55,1.17
	l1.17,0.82h0.01c0,0.01,0.01,0.01,0.01,0.02c0.03,0.02,0.05,0.04,0.07,0.05c0.01,0.02,0.01,0.03,0.02,0.04
	c0.01,0.01,0.02,0.03,0.02,0.04C50.99,38.21,50.99,38.23,51,38.25z"/>
<path class="st0" d="M20,48c4.04,0.74,10.04,1.12,16,1.12c5.41,0,10.41-0.37,15-1.12"/>
<path class="st0" d="M20,39c4.04,0.74,9.04,1.12,15,1.12c5.41,0,10.41-0.37,15-1.12c-6.56,0.74-11.56,1.12-15,1.12
	S26.56,39.74,20,39z"/>
</svg>
