<?xml version="1.0" encoding="utf-8"?>
<!-- Generator: Adobe Illustrator 23.0.2, SVG Export Plug-In . SVG Version: 6.00 Build 0)  -->
<svg version="1.1" id="Layer_1" xmlns="http://www.w3.org/2000/svg" xmlns:xlink="http://www.w3.org/1999/xlink" x="0px" y="0px"
	 viewBox="0 0 60 60" style="enable-background:new 0 0 60 60;" xml:space="preserve">
<style type="text/css">
	.st0{fill:none;stroke:#422CFD;stroke-width:1.5;stroke-linecap:round;stroke-linejoin:round;}
</style>
<path class="st0" d="M9.91,21.04L40,20.87l0.1,27.78c0,0.19-0.16,0.35-0.35,0.35H10L9.91,21.04z"/>
<path class="st0" d="M40,49l7.92-9.36C47.97,39.57,48,39.5,48,39.41V28.5"/>
<polygon class="st0" points="39.58,20.85 47,13 54,22.08 46.4,29.57 "/>
<polyline class="st0" points="24,13 20.11,13 9.53,20.85 6,29.05 9.53,27.39 "/>
<path class="st0" d="M47,13h-9.45"/>
<polyline class="st0" points="16.6,20.85 26.5,11.09 35.7,20.85 "/>
<polyline class="st0" points="28.62,13.18 33.57,9 42,18 "/>
<path class="st0" d="M19,29h11"/>
</svg>
