<?xml version="1.0" encoding="utf-8"?>
<!-- Generator: Adobe Illustrator 23.0.2, SVG Export Plug-In . SVG Version: 6.00 Build 0)  -->
<svg version="1.1" id="Layer_1" xmlns="http://www.w3.org/2000/svg" xmlns:xlink="http://www.w3.org/1999/xlink" x="0px" y="0px"
	 viewBox="0 0 60 60" style="enable-background:new 0 0 60 60;" xml:space="preserve">
<style type="text/css">
	.st0{fill:none;stroke:#422CFD;stroke-width:1.5;stroke-linecap:square;stroke-linejoin:round;}
</style>
<path class="st0" d="M22,25.04h14c1.1,0,2,0.9,2,2v5c0,1.1-0.9,2-2,2H22c-1.1,0-2-0.9-2-2v-5C20,25.93,20.9,25.04,22,25.04z"/>
<path class="st0" d="M20.48,15.85c1.51-3.2,4.35-4.81,8.52-4.81s7.02,1.6,8.53,4.81l0,0c0.31,0.66,0.47,1.39,0.47,2.13v5.07
	c0,1.1-0.9,2-2,2H22c-1.1,0-2-0.9-2-2l0,0v-5.07C20,17.24,20.16,16.51,20.48,15.85z"/>
<path class="st0" d="M22,34.04h14c1.1,0,2,0.89,2,2v15c0,1.1-0.9,2-2,2H22c-1.1,0-2-0.9-2-2v-15C20,34.93,20.9,34.04,22,34.04z"/>
<rect x="26" y="5.04" class="st0" width="6" height="3"/>
<path class="st0" d="M27,8.04v3"/>
<path class="st0" d="M31,8.04v3"/>
</svg>
